<?xml version="1.0" encoding="UTF-8"?>
<svg enable-background="new 581 510 38 38" version="1.1" viewBox="581 510 38 38" xml:space="preserve" xmlns="http://www.w3.org/2000/svg">
    <style type="text/css">
    .st0 {
        fill: #fff;
    }

    </style>
    <g transform="matrix(1 0 0 -1 0 960)">
        <path class="st0" d="m599.1 443h1.7c0.1 0 0.1 0 0.2-0.1 0.1 0 0.1-0.1 0.1-0.2v-4.4c0-0.1 0-0.1-0.1-0.2-0.1 0-0.1-0.1-0.2-0.1h-1.7c-0.1 0-0.1 0-0.2 0.1s-0.1 0.1-0.1 0.2v4.4c0 0.1 0 0.1 0.1 0.2s0.1 0.1 0.2 0.1zm6-1.1h0.1l1.5-0.8c0.1 0 0.1-0.1 0.1-0.2v-0.2l-2.2-3.8c0-0.1-0.1-0.1-0.2-0.1h-0.2l-1.4 0.8c-0.1 0-0.1 0.1-0.1 0.2v0.2l2.2 3.8s0.1 0.1 0.2 0.1zm-10.3-0.1c0.1 0 0.2 0 0.2-0.1l2.2-3.8v-0.2c0-0.1-0.1-0.1-0.1-0.2l-1.5-0.8h-0.2c-0.1 0-0.1 0.1-0.2 0.1l-2.2 3.8v0.2c0 0.1 0.1 0.1 0.1 0.2l1.5 0.8h0.2zm14.9-3.9c0.1 0 0.2 0 0.2-0.1l0.8-1.5v-0.2s-0.1-0.1-0.1-0.2l-3.8-2.2h-0.2c-0.1 0-0.1 0.1-0.2 0.1l-0.8 1.5v0.2c0 0.1 0.1 0.1 0.1 0.2l3.8 2.2h0.2zm-19.4-0.1h0.1l3.8-2.2c0.1 0 0.1-0.1 0.1-0.2v-0.2l-0.8-1.4c0-0.1-0.1-0.1-0.2-0.1h-0.2l-3.8 2.2c-0.1 0-0.1 0.1-0.1 0.2v0.2l0.8 1.5h0.3zm17-5.6h4.4c0.1 0 0.1 0 0.2-0.1 0 0 0.1-0.1 0.1-0.2v-1.7c0-0.1 0-0.1-0.1-0.2 0-0.1-0.1-0.1-0.2-0.1h-4.4c-0.1 0-0.1 0-0.2 0.1 0 0.1-0.1 0.1-0.1 0.2v1.7c0 0.1 0 0.1 0.1 0.2s0.2 0.1 0.2 0.1zm-19-0.1h4.4c0.1 0 0.1 0 0.2-0.1 0-0.1 0.1-0.1 0.1-0.2v-1.7c0-0.1 0-0.1-0.1-0.2 0-0.1-0.1-0.1-0.2-0.1h-4.4c-0.1 0-0.1 0-0.2 0.1-0.1 0-0.1 0.1-0.1 0.2v1.7c0 0.1 0 0.1 0.1 0.2 0 0 0.1 0.1 0.2 0.1zm18.5-3.7h0.1l3.8-2.2c0.1 0 0.1-0.1 0.1-0.2v-0.2l-0.8-1.5c0-0.1-0.1-0.1-0.2-0.1h-0.2l-3.8 2.2c-0.1 0-0.1 0.1-0.1 0.2v0.2l0.8 1.4c0.1 0.1 0.2 0.2 0.3 0.2zm-13.6-0.1c0.1 0 0.2 0 0.3-0.1l0.8-1.5v-0.2c0-0.1-0.1-0.1-0.1-0.2l-3.8-2.2h-0.2c-0.1 0-0.1 0.1-0.2 0.1l-0.8 1.5v0.2s0.1 0.1 0.1 0.2l3.8 2.2h0.1zm11.3-2.9c0.1 0 0.2 0 0.2-0.1l2.2-3.8v-0.2c0-0.1-0.1-0.1-0.1-0.2l-1.5-0.8h-0.2c-0.1 0-0.1 0.1-0.2 0.1l-2.2 3.8v0.2c0 0.1 0.1 0.1 0.1 0.2l1.5 0.8h0.2zm-8.8-0.1h0.1l1.4-0.8c0.1 0 0.1-0.1 0.1-0.2v-0.2l-2.2-3.8c0-0.1-0.1-0.1-0.2-0.1h-0.2l-1.5 0.8c-0.1 0-0.1 0.1-0.1 0.2v0.2l2.2 3.8c0.2 0.1 0.2 0.1 0.4 0.1zm3.5-1.4h1.7c0.1 0 0.1 0 0.2-0.1s0.1-0.1 0.1-0.2v-4.4c0-0.1 0-0.1-0.1-0.2 0-0.1-0.1-0.1-0.2-0.1h-1.7c-0.1 0-0.1 0-0.2 0.1-0.1 0-0.1 0.1-0.1 0.2v4.4c0 0.1 0 0.1 0.1 0.2s0.2 0.1 0.2 0.1z" />
    </g>
</svg>
